<svg width="31" height="36" viewBox="0 0 31 36" fill="none" xmlns="http://www.w3.org/2000/svg">
<path fill-rule="evenodd" clip-rule="evenodd" d="M30.5102 0.168487C30.6599 0.269275 30.7834 0.410016 30.8692 0.577367C30.9549 0.744718 30.9999 0.933131 31 1.12474V34.875C31 35.1734 30.8911 35.4595 30.6973 35.6705C30.5036 35.8815 30.2407 36 29.9667 36H23.7667C23.4926 36 23.2298 35.8815 23.036 35.6705C22.8422 35.4595 22.7333 35.1734 22.7333 34.875V31.5H20.6667V34.875C20.6667 35.1734 20.5578 35.4595 20.364 35.6705C20.1702 35.8815 19.9074 36 19.6333 36H1.03333C0.759276 36 0.496444 35.8815 0.302656 35.6705C0.108869 35.4595 0 35.1734 0 34.875V22.4999C0.000164603 22.2639 0.0685061 22.0339 0.195352 21.8425C0.322197 21.6511 0.501121 21.508 0.7068 21.4334L12.4 17.1899V10.1248C12.4 9.91606 12.4534 9.71142 12.5541 9.5338C12.6548 9.35618 12.799 9.21257 12.9704 9.11905L29.5037 0.118986C29.6614 0.0330489 29.8367 -0.00751822 30.0129 0.00114634C30.1891 0.00981089 30.3603 0.0674187 30.5102 0.168487ZM12.4 19.5614L2.06667 23.3099V33.75H12.4V19.5614ZM14.4667 33.75H18.6V30.375C18.6 30.0766 18.7089 29.7904 18.9027 29.5795C19.0964 29.3685 19.3593 29.25 19.6333 29.25H23.7667C24.0407 29.25 24.3036 29.3685 24.4973 29.5795C24.6911 29.7904 24.8 30.0766 24.8 30.375V33.75H28.9333V2.94501L14.4667 10.8201V33.75Z" fill="url(#paint0_linear)"/>
<path d="M4.1333 24.7499H6.19997V26.9999H4.1333V24.7499ZM8.26663 24.7499H10.3333V26.9999H8.26663V24.7499ZM4.1333 29.2499H6.19997V31.4999H4.1333V29.2499ZM8.26663 29.2499H10.3333V31.4999H8.26663V29.2499ZM16.5333 20.2499H18.6V22.4999H16.5333V20.2499ZM20.6666 20.2499H22.7333V22.4999H20.6666V20.2499ZM16.5333 24.7499H18.6V26.9999H16.5333V24.7499ZM20.6666 24.7499H22.7333V26.9999H20.6666V24.7499ZM24.8 20.2499H26.8666V22.4999H24.8V20.2499ZM24.8 24.7499H26.8666V26.9999H24.8V24.7499ZM16.5333 15.7498H18.6V17.9998H16.5333V15.7498ZM20.6666 15.7498H22.7333V17.9998H20.6666V15.7498ZM24.8 15.7498H26.8666V17.9998H24.8V15.7498ZM16.5333 11.2498H18.6V13.4998H16.5333V11.2498ZM20.6666 11.2498H22.7333V13.4998H20.6666V11.2498ZM24.8 11.2498H26.8666V13.4998H24.8V11.2498ZM24.8 6.74976H26.8666V8.99977H24.8V6.74976Z" fill="url(#paint1_linear)"/>
<defs>
<linearGradient id="paint0_linear" x1="15.5" y1="0" x2="15.5" y2="36" gradientUnits="userSpaceOnUse">
<stop stop-color="#0047FF"/>
<stop offset="1" stop-color="#03FFD2"/>
</linearGradient>
<linearGradient id="paint1_linear" x1="15.5" y1="6.74976" x2="15.5" y2="31.4999" gradientUnits="userSpaceOnUse">
<stop stop-color="#0047FF"/>
<stop offset="1" stop-color="#03FFD2"/>
</linearGradient>
</defs>
</svg>
